<svg width="177" height="50" viewBox="0 0 177 50" fill="none" xmlns="http://www.w3.org/2000/svg">
<g id="Group">
<path id="Vector" d="M24.993 30.803C25.7522 29.2074 26.1274 27.4562 26.0887 25.6896C26.1751 23.9702 25.7629 22.2624 24.9016 20.7717C24.1378 19.5773 23.1101 18.5743 21.8975 17.8397C20.6777 17.1073 19.3664 16.5393 17.9977 16.1505C16.6061 15.753 15.3059 15.3573 14.0969 14.9635C13.0291 14.6344 12.0161 14.1485 11.091 13.5217C10.7035 13.2498 10.3914 12.884 10.1838 12.4585C9.97616 12.0331 9.8799 11.562 9.90399 11.0892C9.88577 10.4876 10.0598 9.89591 10.4007 9.39995C10.7374 8.93062 11.18 8.54738 11.6927 8.28141C12.225 7.9989 12.7933 7.79031 13.382 7.66141C13.9513 7.53192 14.533 7.46517 15.1169 7.46236C16.1604 7.47778 17.1936 7.67108 18.1721 8.03396C19.1752 8.36557 20.0623 8.9774 20.7288 9.79715L26.0439 3.98436C24.598 2.68608 22.8854 1.71995 21.0264 1.15376C19.1579 0.589068 17.2159 0.304437 15.2639 0.309139C13.5657 0.30611 11.876 0.548768 10.2473 1.02957C8.68966 1.4713 7.2287 2.20132 5.94023 3.18175C4.69816 4.14268 3.681 5.36334 2.95987 6.75836C2.18812 8.29863 1.80445 10.0041 1.84224 11.7265C1.76232 13.3873 2.18628 15.0335 3.05849 16.4491C3.85217 17.6234 4.89621 18.6073 6.11554 19.3299C7.36366 20.069 8.69799 20.6516 10.0884 21.0648C11.5117 21.4958 12.8363 21.9265 14.0622 22.3568C15.155 22.7191 16.1857 23.247 17.1184 23.9219C17.5106 24.2088 17.8266 24.5874 18.0386 25.0247C18.2506 25.462 18.3523 25.9445 18.3346 26.4302C18.35 27.0133 18.1858 27.587 17.8644 28.0737C17.5429 28.5428 17.1184 28.9323 16.6235 29.2124C16.0819 29.5216 15.4971 29.7481 14.8886 29.8844C12.9835 30.33 10.9829 30.1016 9.22738 29.2379C8.03659 28.6777 7.00181 27.8332 6.21416 26.779L0.699951 32.8392C2.2729 34.3248 4.13204 35.4743 6.16394 36.2177C8.20812 36.9285 10.3595 37.2819 12.5237 37.2623C14.2778 37.2704 16.0246 37.0363 17.7146 36.5665C19.2795 36.1397 20.7471 35.4142 22.0363 34.4298C23.2847 33.4613 24.2959 32.221 24.993 30.803Z" fill="#1C3554"/>
<path id="Vector_2" d="M28.6179 8.05037H38.6538V36.3665H46.4024V8.05037H56.4373V1.19482H28.6179V8.05037Z" fill="#1C3554"/>
<path id="Vector_3" d="M114.835 5.29546C112.801 3.80696 110.488 2.74168 108.035 2.16262C105.342 1.50636 102.579 1.18132 99.8076 1.19473H82.2688V22.5056C82.2789 23.5389 82.1022 24.5656 81.7474 25.5361C81.4215 26.4281 80.9232 27.2472 80.281 27.9467C79.6533 28.6243 78.8927 29.1652 78.0466 29.5355C77.1538 29.9231 76.1893 30.1179 75.216 30.1071C74.2343 30.1167 73.2614 29.922 72.3589 29.5355C71.5028 29.1698 70.7329 28.6285 70.099 27.9467C69.4574 27.2467 68.9592 26.4277 68.6326 25.5361C68.2778 24.5656 68.1011 23.5389 68.1112 22.5056V1.19473H60.3608V22.8041C60.3401 24.7651 60.6595 26.7149 61.305 28.5667C61.904 30.2729 62.8606 31.8313 64.1109 33.1377C65.4217 34.4756 67.0088 35.5111 68.7613 36.1719C70.4327 36.7959 72.1932 37.1486 73.976 37.2165L73.913 37.2649H100.881C103.491 37.2761 106.086 36.8806 108.573 36.0925C110.926 35.3617 113.121 34.1952 115.044 32.6537C116.919 31.1326 118.441 29.2205 119.501 27.051C120.645 24.6416 121.212 21.999 121.157 19.3325C121.24 16.4384 120.656 13.5641 119.449 10.932C118.386 8.71017 116.803 6.77688 114.835 5.29546ZM111.905 24.0916C111.295 25.4383 110.358 26.6117 109.181 27.5057C107.957 28.4036 106.56 29.0368 105.079 29.3648C103.4 29.7493 101.682 29.9371 99.9601 29.9245H95.8338V8.53057H100.521C102.13 8.5241 103.733 8.73917 105.284 9.16974C106.708 9.55361 108.047 10.2019 109.232 11.0809C110.36 11.9391 111.275 13.0462 111.905 14.316C112.596 15.7523 112.936 17.3319 112.899 18.9253C112.95 20.6994 112.611 22.4632 111.905 24.0916Z" fill="#1C3554"/>
<path id="Vector_4" d="M132.896 1.19482H125.145V36.3665H132.896V1.19482Z" fill="#1C3554"/>
<path id="Vector_5" d="M174.599 26.4301C175.571 23.9986 176.053 21.3986 176.015 18.7802C176.052 16.1617 175.571 13.5617 174.599 11.1302C173.71 8.92657 172.364 6.9366 170.65 5.29185C168.92 3.66112 166.874 2.40196 164.639 1.59197C159.718 -0.130756 154.358 -0.130756 149.437 1.59197C147.202 2.40175 145.156 3.66093 143.426 5.29185C141.712 6.93675 140.365 8.92666 139.476 11.1302C138.505 13.5619 138.024 16.1618 138.061 18.7802C138.024 21.3985 138.505 23.9984 139.476 26.4301C140.366 28.6333 141.712 30.6229 143.426 32.2675C145.156 33.8996 147.202 35.1595 149.437 35.9692C154.358 37.692 159.718 37.692 164.639 35.9692C166.874 35.1593 168.92 33.8994 170.65 32.2675C172.364 30.6231 173.71 28.6335 174.599 26.4301ZM167.203 23.3256C166.716 24.656 165.964 25.8731 164.99 26.9022C164.018 27.922 162.842 28.7261 161.539 29.2625C158.647 30.3887 155.438 30.3887 152.547 29.2625C151.243 28.7261 150.068 27.922 149.095 26.9022C148.122 25.8731 147.369 24.656 146.883 23.3256C145.857 20.3904 145.857 17.1945 146.883 14.2594C147.365 12.9196 148.118 11.6934 149.095 10.6572C150.069 9.63915 151.244 8.83579 152.547 8.29869C155.438 7.1725 158.647 7.1725 161.539 8.29869C162.841 8.83579 164.017 9.63915 164.99 10.6572C165.967 11.6934 166.72 12.9196 167.203 14.2594C168.227 17.1947 168.227 20.3902 167.203 23.3256Z" fill="#1C3554"/>
<path id="Vector_6" d="M0.77124 43.664H2.8038V49.3991H4.3725V43.664H6.40598V42.2751H0.77124V43.664Z" fill="#1C3554"/>
<path id="Vector_7" d="M23.6124 42.2751L20.5334 49.3973H22.2629L22.8573 47.888H25.624L26.2376 49.3973H28.009L24.9099 42.2751H23.6124ZM23.3504 46.5667L24.2151 44.3524L25.0907 46.5667H23.3504Z" fill="#1C3554"/>
<path id="Vector_8" d="M48.8969 47.226H48.8759L45.8481 42.2751H43.7151V49.3991H45.2847V44.3278H45.3048L48.4139 49.3991H50.4665V42.2751H48.8969V47.226Z" fill="#1C3554"/>
<path id="Vector_9" d="M69.2518 42.2751L66.1729 49.3973H67.9032L68.4967 47.888H71.2634L71.877 49.3973H73.6484L70.5493 42.2751H69.2518ZM68.9898 46.5667L69.8545 44.3524L70.7301 46.5667H68.9898Z" fill="#1C3554"/>
<path id="Vector_10" d="M93.973 44.9323H90.9241V42.2751H89.3545V49.3991H90.9241V46.3202H93.973V49.3991H95.5426V42.2751H93.973V44.9323Z" fill="#1C3554"/>
<path id="Vector_11" d="M132.299 42.2751L129.22 49.3973H130.955L131.548 47.888H134.315L134.928 49.3973H136.7L133.601 42.2751H132.299ZM132.037 46.5667L132.901 44.3524L133.777 46.5667H132.037Z" fill="#1C3554"/>
<path id="Vector_12" d="M153.951 42.2751H152.38V49.3991H153.951V42.2751Z" fill="#1C3554"/>
<path id="Vector_13" d="M174.275 46.3904C174.73 46.3254 175.142 46.0853 175.422 45.7211C175.69 45.3494 175.828 44.9004 175.815 44.4428C175.827 44.0832 175.753 43.7261 175.599 43.4009C175.463 43.1336 175.262 42.9052 175.014 42.7371C174.754 42.5663 174.464 42.4467 174.16 42.3846C173.82 42.3127 173.474 42.2772 173.128 42.2787H170.371V49.4009H171.942V46.552H172.717L174.206 49.3991H176.087L174.275 46.3904ZM174.058 44.8811C173.976 44.9875 173.867 45.0694 173.741 45.1176C173.605 45.1707 173.46 45.2015 173.314 45.2089C173.156 45.2198 173.007 45.2244 172.866 45.2244H171.942V43.6036H172.968C173.112 43.6039 173.257 43.614 173.4 43.6338C173.537 43.6502 173.67 43.6894 173.793 43.7497C173.907 43.8063 174.003 43.8909 174.075 43.9954C174.154 44.1251 174.193 44.276 174.185 44.4282C174.195 44.5891 174.15 44.7487 174.058 44.8811Z" fill="#1C3554"/>
</g>
</svg>
